# AST/ASF file generated using VICON BodyLanguage
# -----------------------------------------------
:version 1.10
:name VICON
:units
  mass 1.0
  length 0.45
  angle deg
:documentation
   .ast/.asf automatically generated from VICON data using
   VICON BodyBuilder and BodyLanguage model FoxedUp or BRILLIANT.MOD
:root
   order TX TY TZ RX RY RZ
   axis XYZ
   position 0 0 0  
   orientation 0 0 0 
:bonedata
  begin
     id 1 
     name lhipjoint
     direction 0.543289 -0.788407 0.288535 
     length 2.57127 
     axis 0 0 0  XYZ
  end
  begin
     id 2 
     name lfemur
     direction 0.34202 -0.939693 0  
     length 8.47298  
     axis 0 0 20  XYZ
    dof rx ry rz
    limits (-160.0 20.0)
           (-70.0 70.0)
           (-60.0 70.0)
  end
  begin
     id 3 
     name ltibia
     direction 0.34202 -0.939693 0   
     length 8.13367   
     axis 0 0 20   XYZ
    dof rx
    limits (-10.0 170.0)
  end
  begin
     id 4 
     name lfoot
     direction 0.114037 -0.313314 0.942778   
     length 2.67113   
     axis -90 7.62852e-016 20   XYZ
    dof rx rz
    limits (-45.0 90.0)
           (-70.0 20.0)
  end
  begin
     id 5 
     name ltoes
     direction 1.536e-011 -4.21847e-011 1   
     length 1.32217   
     axis -90 7.62852e-016 20   XYZ
    dof rx
    limits (-90.0 20.0)
  end
  begin
     id 6 
     name rhipjoint
     direction -0.571293 -0.770752 0.282074   
     length 2.63017  
     axis 0 0 0  XYZ 
  end
  begin
     id 7 
     name rfemur
     direction -0.34202 -0.939693 0   
     length 8.60885   
     axis 0 0 -20   XYZ
    dof rx ry rz
    limits (-160.0 20.0)
           (-70.0 70.0)
           (-70.0 60.0)
  end
  begin
     id 8 
     name rtibia
     direction -0.34202 -0.939693 0   
     length 8.07673   
     axis 0 0 -20   XYZ
    dof rx
    limits (-10.0 170.0)
 end
 begin
     id 9 
     name rfoot
     direction -0.121336 -0.333368 0.934956   
     length 2.81602  
     axis -90 -7.62852e-016 -20   XYZ
    dof rx rz
    limits (-45.0 90.0)
           (-20.0 70.0)
  end
  begin
     id 10 
     name rtoes
     direction -1.53491e-011 -4.21808e-011 1   
     length 1.38905   
     axis -90 -7.62852e-016 -20   XYZ
    dof rx
    limits (-90.0 20.0)
  end
  begin
     id 11 
     name lowerback
     direction 0.0136776 0.999869 -0.00861835   
     length 2.14087   
     axis 0 0 0   XYZ
    dof rx ry rz
    limits (-20.0 45.0)
           (-30.0 30.0)
           (-30.0 30.0)
  end
  begin
     id 12 
     name upperback
     direction -0.00789158 0.999804 0.0181308   
     length 2.14151   
     axis 0 0 0   XYZ
    dof rx ry rz
    limits (-20.0 45.0)
           (-30.0 30.0)
           (-30.0 30.0)
  end
  begin
     id 13 
     name thorax
     direction -0.0135231 0.999666 0.0220247   
     length 2.13644   
     axis 0 0 0   XYZ
    dof rx ry rz
    limits (-20.0 45.0)
           (-30.0 30.0)
           (-30.0 30.0)
  end
  begin
     id 14 
     name lowerneck
     direction -0.0392259 0.997317 0.0618018   
     length 1.65045   
     axis 0 0 0   XYZ
    dof rx ry rz
    limits (-20.0 45.0)
           (-30.0 30.0)
           (-30.0 30.0)
  end
  begin
     id 15 
     name upperneck
     direction 0.0765547 0.994276 -0.0745319   
     length 1.66045   
     axis 0 0 0   XYZ
    dof rx ry rz
    limits (-20.0 45.0)
           (-30.0 30.0)
           (-30.0 30.0)
  end
  begin
     id 16
     name head
     direction 0.0241564 0.999031 -0.036785  
     length 1.66594  
     axis 0 0 0   XYZ
    dof rx ry rz
    limits (-20.0 45.0)
           (-30.0 30.0)
           (-30.0 30.0)
  end
  begin
     id 17 
     name lclavicle
     direction 0.967398 0.249018 0.0461573  
     length 3.75176  
     axis 0 0 0   XYZ
    dof ry rz
    limits (-20.0 10.0)
           (0.0 20.0)
  end
  begin
     id 18 
     name lhumerus
     direction 1 -4.48963e-011 -3.05005e-027   
     length 5.93342   
     axis 180 -30 -90   XYZ
    dof rx ry rz
    limits (-60.0 90.0)
           (-90.0 90.0)
           (-90.0 90.0)
  end
  begin
     id 19
     name lradius
     direction 1 -4.48957e-011 1.07006e-026   
     length 3.94763   
     axis 180 -30 -90   XYZ
    dof rx
    limits (-10.0 170.0)
  end
  begin
     id 20
     name lwrist
     direction 1 -4.48978e-011 1.92422e-026   
     length 1.97382   
     axis -1.18182e-014 90 90   XYZ
    dof ry
    limits (-180.0 0.0)
 end
  begin
     id 21 
     name lhand
     direction 1 -4.48931e-011 3.84844e-026   
     length 0.560187   
     axis -2.45563e-014 90 90   XYZ
    dof rx rz
    limits (-90.0 90.0)
           (-45.0 45.0)
  end
  begin
     id 22 
     name lfingers
     direction 1 -4.48952e-011 7.69687e-026   
     length 0.451637   
     axis -4.91126e-014 90 90   XYZ
    dof rx
    limits (0.0 90.0)
  end
  begin
     id 23
     name lthumb
     direction 0.707107 -6.34901e-011 0.707107   
     length 0.648463   
     axis -90 45 2.85299e-015   XYZ
    dof rx rz
    limits (-45.0 45.0)
           (-45.0 45.0)
  end
  begin
     id 24 
     name rclavicle
     direction -0.965946 0.258716 0.00371831   
     length 3.63667  
     axis 0 0 0   XYZ 
    dof ry rz
    limits (-10.0 20.0)
           (-20.0 0.0)
  end
  begin
     id 25 
     name rhumerus
     direction -1 -4.48966e-011 -1.78361e-028  
     length 6.28647   
     axis 180 30 90   XYZ
    dof rx ry rz
    limits (-90.0 60.0)
           (-90.0 90.0)
           (-90.0 90.0)
  end
  begin
     id 26 
     name rradius
     direction -1 -4.48961e-011 1.05248e-026   
     length 3.81645   
     axis 180 30 90   XYZ
    dof rx
    limits (-10.0 170.0)
  end
  begin
     id 27 
     name rwrist
     direction -1 -4.48979e-011 1.92422e-026   
     length 1.90822   
     axis -1.18182e-014 -90 -90   XYZ
    dof ry
    limits (-180.0 0.0)
  end
  begin
     id 28
     name rhand
     direction -1 -4.48937e-011 3.84844e-026   
     length 0.646185   
     axis -2.45563e-014 -90 -90   XYZ
    dof rx rz
    limits (-90.0 90.0)
           (-45.0 45.0)
  end
  begin
     id 29
     name rfingers
     direction -1 -4.48953e-011 7.69687e-026   
     length 0.520971   
     axis -4.91126e-014 -90 -90   XYZ
    dof rx
    limits (0.0 90.0)
  end
  begin
     id 30
     name rthumb
     direction -0.707107 -6.3494e-011 0.707107   
     length 0.748013   
     axis -90 -45 -2.85299e-015   XYZ
    dof rx rz
    limits (-45.0 45.0)
           (-45.0 45.0)
  end
:hierarchy
  begin
    root lhipjoint rhipjoint lowerback
    lhipjoint lfemur
    lfemur ltibia
    ltibia lfoot
    lfoot ltoes
    rhipjoint rfemur
    rfemur rtibia
    rtibia rfoot
    rfoot rtoes
    lowerback upperback
    upperback thorax
    thorax lowerneck lclavicle rclavicle
    lowerneck upperneck
    upperneck head
    lclavicle lhumerus
    lhumerus lradius
    lradius lwrist
    lwrist lhand lthumb
    lhand lfingers
    rclavicle rhumerus
    rhumerus rradius
    rradius rwrist
    rwrist rhand rthumb
    rhand rfingers
  end

#!OML:ASF H:\HAZMAT1\Patient Classification 1\Patient 3\Session 1\dancer.ASF
:FULLY-SPECIFIED
:DEGREES
119
upperback -1.475770 -5.505630 -0.582942
rfoot -25.783600 -12.831600
lradius 38.776901
lthumb 9.840760 -309.515991
rradius 31.661600
lwrist -7.871270
rhand -14.789500 -21.536699
rhumerus -58.842098 -11.100100 -78.017097
lowerneck 0.533620 5.681580 6.838870
lhand -16.372499 380.734009
ltibia 34.401798
head 0.262061 3.809110 -3.267930
rwrist 15.723300
lfingers 7.125020
rtoes 6.705580
lowerback -2.779880 -3.930600 9.881300
rfingers 7.125020
lclavicle -0.000000 -0.000000
upperneck -0.636615 7.608120 -6.587590
rfemur -27.757601 16.723700 18.739300
thorax -0.970593 -2.872940 -6.185830
rclavicle -0.000000 -0.000000
rtibia 35.308102
lfoot -34.995300 50.653099
lhumerus -33.832298 -10.266800 87.129700
rthumb 11.367700 668.791016
root 15.152600 19.075899 35.484798 -703.724976 -133.966003 -0.284207
ltoes -25.106100
lfemur -23.400200 -16.929701 -11.839900
120
upperback -2.136970 -4.644430 -0.539825
rfoot -26.129900 -11.880800
lradius 51.096001
lthumb 10.107600 -310.109009
rradius 32.389900
lwrist -6.056140
rhand -16.761600 -21.906300
rhumerus -59.309700 -9.918170 -76.741600
lowerneck 1.159850 7.163640 7.887810
lhand -16.096001 380.153992
ltibia 34.640800
head 0.128941 4.803040 -4.210900
rwrist 15.887900
lfingers 7.125020
rtoes 6.998030
lowerback -4.743630 -3.074490 11.250500
rfingers 7.125020
lclavicle -0.000000 0.000000
upperneck -1.707860 9.580250 -8.738410
rfemur -23.147400 13.282900 20.741501
thorax -0.519807 -2.475840 -7.028970
rclavicle -0.000000 0.000000
rtibia 35.210098
lfoot -31.703100 48.801498
lhumerus -29.313101 -16.333700 87.335899
rthumb 9.465350 668.325989
root 15.427700 19.051500 35.566502 -707.908020 -130.841995 -0.520376
ltoes -24.321800
lfemur -20.143801 -16.583799 -12.372300
121
upperback -2.382270 -3.837100 -0.915482
rfoot -29.229099 -15.955500
lradius 51.722401
lthumb 9.782240 -310.061005
rradius 35.631599
lwrist -4.065410
rhand -18.953100 -24.012699
rhumerus -58.437599 -10.104800 -78.557198
lowerneck 1.123620 6.970750 7.832990
lhand -16.433201 380.187012
ltibia 35.654800
head -0.261480 4.647900 -3.837880
rwrist 12.417500
lfingers 7.125020
rtoes 2.035960
lowerback -4.706140 -2.496150 10.789300
rfingers 7.125020
lclavicle -0.000000 0.000000
upperneck -2.654900 9.291530 -7.604720
rfemur -21.065901 12.126800 21.685101
thorax -0.628285 -2.088610 -7.149080
rclavicle -0.000000 0.000000
rtibia 34.636600
lfoot -27.637199 46.270500
lhumerus -31.010799 -16.022900 88.539597
rthumb 7.350410 666.135010
root 15.592200 19.015699 35.957901 -711.306030 -125.790001 0.922922
ltoes -22.149200
lfemur -20.601700 -18.397200 -11.413300
122
upperback -2.159370 -3.269370 -1.119860
rfoot -34.288898 -22.247601
lradius 37.224300
lthumb 12.295500 -311.358002
rradius 35.829498
lwrist -7.629190
rhand -18.283199 -23.038700
rhumerus -57.824501 -9.967660 -81.442101
lowerneck 1.228300 5.459120 6.512920
lhand -13.827500 379.023010
ltibia 37.194500
head -0.558993 3.644560 -2.830550
rwrist 9.445910
lfingers 7.125020
rtoes -0.312550
lowerback -4.185610 -2.127530 10.580400
rfingers 7.125020
lclavicle 0.000000 -0.000000
upperneck -2.555650 7.298340 -5.253520
rfemur -17.429001 11.787400 22.641800
thorax -0.570633 -1.783630 -7.220410
rclavicle 0.000000 -0.000000
rtibia 34.035801
lfoot -25.160500 41.406300
lhumerus -34.371498 -16.305500 91.054298
rthumb 7.997040 667.132996
root 15.383600 18.963400 36.393200 -716.312012 -118.285004 3.960250
ltoes -19.664200
lfemur -20.730000 -20.841200 -11.118000
123
upperback -2.314450 -2.658240 -0.850899
rfoot -34.863201 -19.029800
lradius 17.636700
lthumb 12.161800 -310.160004
rradius 37.005100
lwrist -22.688801
rhand -18.436399 -23.833300
rhumerus -56.428799 -8.983300 -81.301498
lowerneck 0.893212 4.862230 6.479310
lhand -13.966100 380.213989
ltibia 38.310398
head -0.545660 3.232560 -2.145360
rwrist 9.700100
lfingers 7.125020
rtoes -3.286180
lowerback -3.072260 -1.815850 8.297790
rfingers 7.125020
lclavicle 0.000000 0.000000
upperneck -2.320480 6.519620 -3.227620
rfemur -17.212500 4.538570 22.858601
thorax -1.099020 -1.474780 -5.585730
rclavicle 0.000000 0.000000
rtibia 36.673698
lfoot -24.517200 35.213402
lhumerus -34.867100 5.371720 75.470703
rthumb 7.849130 666.331970
root 14.920600 18.879499 36.604801 -719.310974 -113.968002 7.000740
ltoes -17.407101
lfemur -21.168301 -21.938601 -10.912500
124
upperback -1.750510 -2.741200 -0.950660
rfoot -23.399799 -14.660200
lradius 19.351500
lthumb 9.882270 -308.557007
rradius 37.177898
lwrist -19.611601
rhand -19.627199 -17.775499
rhumerus -55.727501 -8.814030 -80.575996
lowerneck -0.461027 3.823250 5.676430
lhand -16.329500 381.695007
ltibia 37.649502
head -0.645933 2.456300 -0.972829
rwrist 11.668900
lfingers 7.125020
rtoes -0.751168
lowerback -0.946806 -2.027550 6.576520
rfingers 7.125020
lclavicle -0.000000 0.000000
upperneck -2.824920 5.068380 -0.063286
rfemur -23.394199 3.098450 13.925800
thorax -1.634720 -1.483380 -4.648090
rclavicle -0.000000 0.000000
rtibia 46.975800
lfoot -23.945801 21.635700
lhumerus -36.470402 1.843500 66.350502
rthumb 6.699720 672.349976
root 14.600500 18.892599 35.840000 -726.143982 -107.947998 14.469000
ltoes -14.151300
lfemur -20.937000 -24.324600 -7.035110
125
upperback -1.711160 -3.757900 0.069586
rfoot -5.355300 -19.928699
lradius 24.865000
lthumb 7.199880 -306.872009
rradius 33.352699
lwrist -12.498300
rhand -19.337700 -17.191700
rhumerus -57.694599 -7.937250 -74.993202
lowerneck -1.326020 2.430190 4.340620
lhand -19.109100 383.269989
ltibia 33.813499
head -0.020310 1.557730 -0.656599
rwrist 14.334600
lfingers 7.125020
rtoes 17.479500
lowerback -0.696538 -2.810110 6.747480
rfingers 7.125020
lclavicle -0.000000 -0.000000
upperneck -0.999820 3.163280 0.134693
rfemur -15.921100 21.159599 -2.780940
thorax -1.807500 -1.989160 -3.653110
rclavicle -0.000000 -0.000000
rtibia 27.977699
lfoot -23.759501 12.309200
lhumerus -36.799999 -0.044057 67.177902
rthumb 6.979170 672.942993
root 14.109800 18.726000 33.888000 -743.999023 -99.903801 31.816900
ltoes -8.684110
lfemur -17.777399 -29.078100 -0.133329
126
upperback -2.410050 -5.104890 -0.330660
rfoot -17.429501 -8.544990
lradius 27.796000
lthumb 5.090020 -307.868988
rradius 33.393902
lwrist -10.306000
rhand -16.311600 -17.400299
rhumerus -57.974899 -5.271880 -75.877701
lowerneck -1.898480 1.471730 3.022790
lhand -21.294500 382.212006
ltibia 25.522100
head 0.072237 0.932325 -0.670212
rwrist 12.845200
lfingers 7.125020
rtoes -22.246201
lowerback -0.685394 -3.822310 5.561730
rfingers 7.125020
lclavicle -0.000000 0.000000
upperneck -0.901191 1.892360 -0.615023
rfemur -11.958100 27.586500 -1.334550
thorax -2.621000 -2.687780 -3.337880
rclavicle -0.000000 0.000000
rtibia 18.870800
lfoot -10.961100 23.858400
lhumerus -37.200401 0.693597 68.796402
rthumb 9.899520 672.851990
root 14.172100 18.457701 30.323999 -834.021973 -95.484703 125.113998
ltoes -17.158600
lfemur -22.935400 -35.686798 17.156799
127
upperback -1.916660 -3.868700 -1.604360
rfoot -23.828300 -21.940201
lradius 26.450199
lthumb 5.560570 -309.608002
rradius 35.239300
lwrist -11.580300
rhand -18.652300 -19.794701
rhumerus -51.894299 2.046410 -80.172897
lowerneck -1.132850 5.285900 6.220180
lhand -20.807100 380.484985
ltibia 28.853300
head 0.495703 3.433210 -4.441370
rwrist 11.211600
lfingers 7.125020
rtoes -4.808960
lowerback -0.145518 -2.911460 6.715970
rfingers 7.125020
lclavicle 0.000000 0.000000
upperneck -1.107400 6.943260 -10.380200
rfemur -16.347601 21.151400 10.589400
thorax -2.463100 -2.089280 -5.332360
rclavicle 0.000000 0.000000
rtibia 24.317699
lfoot -5.786330 52.960800
lhumerus -42.831402 7.149520 74.215103
rthumb 7.640800 670.362976
root 14.824200 19.059999 26.619499 -879.382019 -107.649002 173.867996
ltoes -3.629330
lfemur -33.614601 -23.776300 12.439400
128
upperback -1.804840 -1.463770 -1.874150
rfoot -28.914101 -24.682501
lradius 23.973600
lthumb 20.162701 -316.838013
rradius 33.892700
lwrist -16.233601
rhand -20.045900 -18.546200
rhumerus -48.113602 3.948360 -78.083199
lowerneck -0.141415 9.577590 10.088100
lhand -5.656330 374.187988
ltibia 46.202499
head 1.605190 6.427840 -5.310350
rwrist 16.022100
lfingers 7.125020
rtoes 4.436500
lowerback -0.895989 -1.072790 7.463010
rfingers 7.125020
lclavicle -0.000000 -0.000000
upperneck 0.084293 12.931800 -13.455400
rfemur -23.242800 10.176300 17.831800
thorax -1.607890 -0.863412 -6.135740
rclavicle -0.000000 -0.000000
rtibia 33.769699
lfoot -19.987700 29.527399
lhumerus -47.579899 2.390220 77.783798
rthumb 6.295500 671.567017
root 15.623600 19.032600 24.333900 -883.393005 -125.555000 178.389999
ltoes 6.254760
lfemur -33.157398 -9.514940 -10.449100
129
upperback -2.012990 -0.960183 -1.948600
rfoot -35.761299 -33.839401
lradius 30.904600
lthumb 9.579200 -310.735992
rradius 34.323898
lwrist -8.763010
rhand -18.704300 -19.970699
rhumerus -50.474800 -1.457900 -83.610901
lowerneck 0.444464 10.731000 11.309700
lhand -16.643600 379.501007
ltibia 44.938499
head 2.085160 7.293960 -5.022070
rwrist 11.906900
lfingers 7.125020
rtoes 12.206700
lowerback -2.163180 -0.629655 7.563830
rfingers 7.125020
lclavicle -0.000000 0.000000
upperneck 1.388290 14.624500 -12.261800
rfemur -24.791800 -7.932370 25.117901
thorax -1.034190 -0.594548 -6.294230
rclavicle -0.000000 0.000000
rtibia 36.673599
lfoot -24.799299 26.867399
lhumerus -43.864601 2.157020 74.491096
rthumb 7.590560 670.185974
root 16.230000 18.942101 22.942600 -885.489990 -159.393005 178.944000
ltoes -2.716760
lfemur -27.104900 0.024332 -14.295200
130
upperback -2.234640 0.000057 -1.729040
rfoot -42.184399 -41.533001
lradius 33.527100
lthumb 9.031630 -310.644989
rradius 37.976601
lwrist -7.377860
rhand -16.071501 -18.480499
rhumerus -47.976200 0.836198 -89.612900
lowerneck -0.384232 10.613000 10.470200
lhand -17.211100 379.567993
ltibia 43.220402
head 1.847650 7.114590 -3.914280
rwrist 11.106500
lfingers 7.125020
rtoes 17.085300
lowerback -2.428940 0.089646 7.255190
rfingers 7.125020
lclavicle 0.000000 -0.000000
upperneck 1.330290 14.265100 -8.958560
rfemur -24.045000 -21.358101 29.375900
thorax -0.954484 -0.107387 -5.876760
rclavicle 0.000000 -0.000000
rtibia 34.974400
lfoot -30.570400 27.423401
lhumerus -43.354500 3.142770 76.712402
rthumb 10.131200 671.783020
root 17.167801 18.953699 22.450701 -886.906006 -188.712006 176.304993
ltoes 18.775499
lfemur -29.625299 5.106450 -9.423970
